# xmcd CD database file
#
# Track frame offsets:
#	150
#	20310
#	42737
#	58570
#	77220
#	97975
#	115465
#	138570
#	162795
#	182025
#	199500
#	217205
#	239000
#	256182
#	283760
#	300647
#	321810
#
# Disc length: 4539 seconds
#
# Revision: 2
# Processed by: cddbd v1.4PL0 Copyright (c) Steve Scherf et al.
# Submitted via: NeoAudio 9.9.9
#
DISCID=f911b911
DTITLE=Michael Bolton - Ballads
DYEAR=1900
DGENRE=Ballad
TTITLE0=Soul Provider
TTITLE1=Geogia On My Mind
TTITLE2=Yesterday
TTITLE3=To Love Somebody
TTITLE4=Missing You Now (feat. Kenny G)
TTITLE5=When A Man Loves A Woman
TTITLE6=Said I Loved You ... But I Lied
TTITLE7=Lean On Me
TTITLE8=Call My Name
TTITLE9=(Sittin' On) The Dock Of The Boy
TTITLE10=That's What Love Is All About
TTITLE11=Now Am I Supposed To Live Without You
TTITLE12=When I'm Back On My Feet Again
TTITLE13=Drift Away
TTITLE14=White Christmas
TTITLE15=We're Not Makin' Love Anymore
TTITLE16=From Now On
EXTD=
EXTT0=
EXTT1=
EXTT2=
EXTT3=
EXTT4=
EXTT5=
EXTT6=
EXTT7=
EXTT8=
EXTT9=
EXTT10=
EXTT11=
EXTT12=
EXTT13=
EXTT14=
EXTT15=
EXTT16=
PLAYORDER=
